Coordinates
version=1
nRows=11
nColumns=36
inDegrees=yes

Units are S.I. units (second, meters, Newtons, ...)
If the header above contains a line with 'inDegrees', this indicates whether rotational values are in degrees (yes) or radians (no).

endheader
time	pelvis_tilt	pelvis_list	pelvis_rotation	pelvis_tx	pelvis_ty	pelvis_tz	hip_flexion_r	hip_adduction_r	hip_rotation_r	knee_angle_r	knee_angle_r_beta	ankle_angle_r	subtalar_angle_r	mtp_angle_r	hip_flexion_l	hip_adduction_l	hip_rotation_l	knee_angle_l	knee_angle_l_beta	ankle_angle_l	subtalar_angle_l	mtp_angle_l	lumbar_extension	lumbar_bending	lumbar_rotation	arm_flex_r	arm_add_r	arm_rot_r	elbow_flex_r	pro_sup_r	arm_flex_l	arm_add_l	arm_rot_l	elbow_flex_l	pro_sup_l
      5.38333330	    -22.22542457	     -0.75235815	     -0.98589740	     -0.27820962	      0.66941253	      0.09733463	     87.91932938	     -4.40440327	      0.35556364	     92.34423481	      1.61171094	     33.08172217	    -10.99323144	     -7.49999987	     88.73102245	     -6.32670331	      3.76347452	     92.67695848	      1.61751807	     27.66249910	    -17.12156832	     -7.49999987	    -31.35791789	      0.57210233	      3.55322960	     68.78887521	     10.21620186	     65.79935178	    124.75920700	     93.36429911	     82.89590975	     12.38203984	     73.39926369	    123.18238824	     75.92807632
      5.40000000	    -22.70956908	     -0.92670216	     -0.83553320	     -0.27251923	      0.66619738	      0.09737670	     88.38068687	     -4.60905336	      0.17495110	     93.09336988	      1.62478582	     34.10526652	    -10.36023050	     -7.49999987	     89.67382066	     -6.39263484	      3.82103826	     93.59760656	      1.63358641	     27.55532966	    -16.80620450	     -7.49999987	    -30.68546010	      0.79691183	      3.58594839	     67.73093564	      9.98720932	     65.95106021	    125.01311013	     93.68581279	     81.93729013	     12.44148070	     73.57301608	    123.29119310	     76.17075672
      5.41666670	    -22.73427906	     -0.98930496	     -0.72942199	     -0.27354911	      0.66359727	      0.09655640	     88.54293641	     -4.72920791	      0.20843825	     93.58875883	      1.63343198	     34.42575247	    -10.40768381	     -7.49999987	     89.94739590	     -6.38734518	      3.81268634	     94.22102367	      1.64446709	     27.57148382	    -17.06315835	     -7.49999987	    -30.60964982	      0.91548050	      3.57191905	     67.55352691	      9.88457158	     66.10388022	    124.87092319	     92.42123025	     81.63171985	     12.57112619	     73.65089105	    123.16814235	     75.54423146
      5.43333330	    -23.22999304	     -1.17268739	     -0.65774709	     -0.27825435	      0.66167102	      0.09754411	     89.24295298	     -4.77773224	      0.10500155	     93.81284552	      1.63734304	     34.90526741	     -9.29434816	     -7.49999987	     90.74744507	     -6.43727714	      3.89514148	     94.46644902	      1.64875057	     27.07278790	    -17.35467807	     -7.49999987	    -30.02441348	      1.10372909	      3.66912404	     67.31150848	      9.57539334	     66.43040742	    125.06055840	     92.90219185	     81.32373877	     12.56254313	     73.89013830	    123.16935456	     75.88292035
      5.45000000	    -23.31540918	     -1.30470298	     -0.54785755	     -0.27931102	      0.66009468	      0.09743049	     89.67069331	     -4.85168268	      0.03883611	     94.12217309	      1.64274182	     34.91512430	     -9.10198056	     -7.49999987	     91.22449120	     -6.39823033	      3.96950604	     94.72667523	      1.65329237	     26.60787178	    -17.82458675	     -7.49999987	    -30.00617481	      1.24134356	      3.60441784	     67.47462682	      9.47067874	     66.44638320	    125.11241601	     92.41736544	     81.43409033	     12.53781159	     73.84919277	    123.17248030	     75.67729864
      5.46666670	    -23.44336794	     -1.41167869	     -0.44195965	     -0.27835910	      0.66014621	      0.09703174	     89.96519278	     -4.87156993	      0.03261989	     94.22428837	      1.64452407	     34.79252808	     -8.94467678	     -7.49999987	     91.53600835	     -6.33147357	      4.03463540	     94.77001159	      1.65404873	     25.91537619	    -18.47755665	     -7.49999987	    -29.91171770	      1.34777372	      3.56327786	     67.41195027	      9.36673605	     66.18415732	    125.03576012	     96.30060746	     81.47529877	     12.60333413	     73.63391167	    122.95277689	     78.48561479
      5.48333330	    -23.42388309	     -1.48853676	     -0.44695339	     -0.27850929	      0.66127964	      0.09795740	     89.96293193	     -4.76844283	      0.02508191	     94.15105819	      1.64324596	     34.60350666	     -8.76341592	     -7.49999987	     91.54673945	     -6.41184604	      4.06533210	     94.61405550	      1.65132679	     25.51760421	    -18.60205228	     -7.49999987	    -29.91239542	      1.39425877	      3.54061533	     67.54278284	      9.33251207	     66.38718415	    124.97113898	     93.56969104	     81.48321638	     12.55932127	     73.63885516	    123.02071075	     76.87359933
      5.50000000	    -23.26834650	     -1.56553623	     -0.38311932	     -0.27533493	      0.66098683	      0.09800535	     89.70623903	     -4.69971762	      0.06949045	     94.15300497	      1.64327994	     34.65655998	     -8.87946189	     -7.49999987	     91.33824737	     -6.47030359	      4.09650523	     94.62480767	      1.65151445	     25.46136084	    -18.77666698	     -7.49999987	    -29.79014259	      1.45298231	      3.52949997	     67.30802817	      9.34553819	     66.15569613	    124.67812525	     93.16456376	     81.14948598	     12.53736843	     73.44388126	    122.76642202	     76.62487669
      5.51666670	    -23.47082663	     -1.69849995	     -0.33173259	     -0.27294348	      0.66288682	      0.09949294	     89.54665625	     -4.63270798	     -0.11847281	     93.94456646	      1.63964200	     34.59064747	     -8.75389394	     -7.49999987	     91.22608278	     -6.67235546	      4.18544102	     94.42141066	      1.64796450	     25.33477326	    -18.18432851	     -7.49999987	    -29.25564769	      1.43283773	      3.45510929	     66.86466750	      9.37572362	     66.70678956	    124.95382363	     92.83096190	     80.57634982	     12.42314353	     74.08275497	    123.35716859	     76.45682550
      5.53333330	    -23.23328742	     -1.70834850	     -0.30593705	     -0.27429871	      0.66389662	      0.09926913	     89.18172710	     -4.52753356	     -0.07181017	     93.87823232	      1.63848425	     34.57545382	     -8.84140145	     -7.49999987	     90.93662984	     -6.78601501	      4.11897395	     94.39760165	      1.64754895	     25.34218713	    -17.85694807	     -7.49999987	    -29.11015305	      1.48343911	      3.46511558	     66.66973996	      9.41507234	     66.49005943	    124.89485821	     92.00360554	     80.38879203	     12.37111912	     73.97183520	    123.54550894	     75.98055318
      5.55000000	    -23.23255714	     -1.71795061	     -0.36738202	     -0.27899706	      0.66717065	      0.09829762	     89.03030268	     -4.44297480	     -0.13870580	     93.46617880	      1.63129256	     34.46117453	     -8.83065451	     -7.49999987	     90.74195395	     -6.77234083	      4.08899490	     93.93124770	      1.63940954	     25.28380083	    -17.74184317	     -7.49999987	    -28.87063244	      1.39837228	      3.42351767	     66.76820654	      9.51321902	     66.39890492	    124.90070060	     92.06045476	     80.39696561	     12.44232079	     73.93186500	    123.54286317	     76.01815399
